<svg width="24.000000" height="25.000000" viewBox="0 0 24 25" fill="none" xmlns="http://www.w3.org/2000/svg" xmlns:xlink="http://www.w3.org/1999/xlink">
	<desc>
			Created with Pixso.
	</desc>
	<defs>
		<clipPath id="clip12_386">
			<rect id="facebook 2" width="24.000000" height="25.000000" fill="white" fill-opacity="0"/>
		</clipPath>
	</defs>
	<rect id="facebook 2" width="24.000000" height="25.000000" fill="#FFFFFF" fill-opacity="0"/>
	<g clip-path="url(#clip12_386)">
		<path id="Vector" d="M20 1.5C21.65 1.5 23 2.84 23 4.5L23 20.5C23 22.15 21.65 23.5 20 23.5L4 23.5C2.34 23.5 1 22.15 1 20.5L1 4.5C1 2.84 2.34 1.5 4 1.5L20 1.5ZM20 3.5C20.55 3.5 21 3.94 21 4.5L21 20.5C21 21.05 20.55 21.5 20 21.5L15 21.5L15 14.5L17.07 14.5C17.5 14.5 17.88 14.22 18.02 13.81L18.46 12.48C18.62 12 18.26 11.5 17.75 11.5L15 11.5L15 9.5C15 9 15.5 8.5 16 8.5L18 8.5C18.55 8.5 19 8.05 19 7.5L19 6.81C19 6.49 18.79 6.2 18.48 6.11C17.17 5.77 16 5.77 16 5.77C13.5 5.77 12 7.5 12 9L12 11.5L10 11.5C9.44 11.5 9 11.94 9 12.5L9 13.5C9 14.05 9.44 14.5 10 14.5L12 14.5L12 21.5L4 21.5C3.44 21.5 3 21.05 3 20.5L3 4.5C3 3.94 3.44 3.5 4 3.5L20 3.5Z" fill="#0F0F0F" fill-opacity="1.000000" fill-rule="evenodd"/>
	</g>
</svg>
