<svg width="24.000000" height="25.000000" viewBox="0 0 24 25" fill="none" xmlns="http://www.w3.org/2000/svg" xmlns:xlink="http://www.w3.org/1999/xlink">
	<desc>
			Created with Pixso.
	</desc>
	<defs>
		<clipPath id="clip12_387">
			<rect id="instagram 1" width="24.000000" height="25.000000" fill="white" fill-opacity="0"/>
		</clipPath>
	</defs>
	<rect id="instagram 1" width="24.000000" height="25.000000" fill="#FFFFFF" fill-opacity="0"/>
	<g clip-path="url(#clip12_387)">
		<path id="Vector" d="M12 18.5C15.31 18.5 18 15.81 18 12.5C18 9.18 15.31 6.5 12 6.5C8.68 6.5 6 9.18 6 12.5C6 15.81 8.68 18.5 12 18.5ZM12 16.5C14.2 16.5 16 14.7 16 12.5C16 10.29 14.2 8.5 12 8.5C9.79 8.5 8 10.29 8 12.5C8 14.7 9.79 16.5 12 16.5Z" fill="#0F0F0F" fill-opacity="1.000000" fill-rule="evenodd"/>
		<path id="Vector" d="M18 5.5C17.44 5.5 17 5.94 17 6.5C17 7.05 17.44 7.5 18 7.5C18.55 7.5 19 7.05 19 6.5C19 5.94 18.55 5.5 18 5.5Z" fill="#0F0F0F" fill-opacity="1.000000" fill-rule="nonzero"/>
		<path id="Vector" d="M1.65 4.77C1 6.05 1 7.73 1 11.1L1 13.89C1 17.26 1 18.94 1.65 20.22C2.22 21.35 3.14 22.27 4.27 22.84C5.55 23.5 7.23 23.5 10.6 23.5L13.4 23.5C16.76 23.5 18.44 23.5 19.72 22.84C20.85 22.27 21.77 21.35 22.34 20.22C23 18.94 23 17.26 23 13.89L23 11.1C23 7.73 23 6.05 22.34 4.77C21.77 3.64 20.85 2.72 19.72 2.15C18.44 1.5 16.76 1.5 13.4 1.5L10.6 1.5C7.23 1.5 5.55 1.5 4.27 2.15C3.14 2.72 2.22 3.64 1.65 4.77ZM13.4 3.5L10.6 3.5C8.88 3.5 7.72 3.5 6.82 3.57C5.94 3.64 5.49 3.77 5.18 3.93C4.43 4.31 3.81 4.93 3.43 5.68C3.27 5.99 3.14 6.44 3.07 7.32C3 8.22 3 9.38 3 11.1L3 13.89C3 15.61 3 16.77 3.07 17.67C3.14 18.55 3.27 19 3.43 19.31C3.81 20.06 4.43 20.68 5.18 21.06C5.49 21.22 5.94 21.35 6.82 21.42C7.72 21.49 8.88 21.5 10.6 21.5L13.4 21.5C15.11 21.5 16.27 21.49 17.17 21.42C18.05 21.35 18.5 21.22 18.81 21.06C19.56 20.68 20.18 20.06 20.56 19.31C20.72 19 20.85 18.55 20.92 17.67C20.99 16.77 21 15.61 21 13.89L21 11.1C21 9.38 20.99 8.22 20.92 7.32C20.85 6.44 20.72 5.99 20.56 5.68C20.18 4.93 19.56 4.31 18.81 3.93C18.5 3.77 18.05 3.64 17.17 3.57C16.27 3.5 15.11 3.5 13.4 3.5Z" fill="#0F0F0F" fill-opacity="1.000000" fill-rule="evenodd"/>
	</g>
</svg>
