<svg width="24.000000" height="25.000000" viewBox="0 0 24 25" fill="none" xmlns="http://www.w3.org/2000/svg" xmlns:xlink="http://www.w3.org/1999/xlink">
	<desc>
			Created with Pixso.
	</desc>
	<defs>
		<clipPath id="clip12_385">
			<rect id="twiter 2" width="24.000000" height="25.000000" fill="white" fill-opacity="0"/>
		</clipPath>
	</defs>
	<rect id="twiter 2" width="24.000000" height="25.000000" fill="#FFFFFF" fill-opacity="0"/>
	<g clip-path="url(#clip12_385)">
		<path id="Vector" d="M19.78 4.41C20.13 4.33 20.37 4.25 20.57 4.16C20.85 4.04 21.08 3.9 21.44 3.66C21.75 3.46 22.14 3.44 22.47 3.61C22.79 3.79 23 4.13 23 4.5C23 5.58 22.86 6.46 22.55 7.24C22.29 7.9 21.92 8.43 21.48 8.91C21.29 12.28 20.32 14.92 18.83 16.92C17.29 18.99 15.23 20.32 13.07 21.07C10.91 21.81 8.63 21.97 6.59 21.72C4.56 21.47 2.69 20.8 1.38 19.78C1.02 19.51 0.9 19.02 1.07 18.6C1.25 18.19 1.69 17.94 2.14 18.01C3.42 18.19 4.66 17.9 5.68 17.48C5.48 17.37 5.29 17.25 5.11 17.13C4.19 16.49 3.44 15.62 3.1 14.94C2.96 14.66 2.96 14.34 3.1 14.06C3.17 13.91 3.27 13.79 3.4 13.69C2.04 12.58 1.5 11.03 1.5 10C1.5 9.69 1.64 9.4 1.88 9.21C1.98 9.13 2.1 9.07 2.22 9.03C2.12 8.74 2.04 8.44 1.98 8.15C1.71 6.86 1.74 5.41 2.02 4.25C2.12 3.86 2.45 3.56 2.86 3.5C3.26 3.45 3.66 3.64 3.86 4C4.94 5.86 6.93 7 8.78 7.68C9.65 8 10.45 8.2 11.05 8.33C11.18 7.11 11.53 6.1 12.05 5.3C12.74 4.24 13.7 3.62 14.74 3.34C16.52 2.86 18.5 3.41 19.78 4.41ZM10.74 10.3C10.06 10.17 9.12 9.93 8.09 9.56C6.73 9.06 5.16 8.29 3.84 7.09C3.86 7.31 3.89 7.53 3.94 7.74C4.16 8.81 4.57 9.41 4.94 9.6C5.4 9.83 5.61 10.36 5.43 10.84C5.19 11.49 4.56 11.54 3.99 11.4C4.45 12.09 5.28 12.78 6.66 13.01C7.14 13.09 7.49 13.5 7.5 13.98C7.5 14.46 7.16 14.88 6.69 14.98L5.82 15.15C5.95 15.27 6.1 15.38 6.25 15.49C6.95 15.97 7.65 16.18 8.25 16.02C8.7 15.91 9.18 16.13 9.39 16.54C9.6 16.96 9.49 17.46 9.14 17.76C8.49 18.3 7.74 18.73 6.99 19.09C6.63 19.25 6.24 19.42 5.81 19.56C6.14 19.64 6.48 19.69 6.84 19.74C8.61 19.95 10.58 19.81 12.42 19.17C14.26 18.54 15.95 17.43 17.22 15.73C18.49 14.02 19.38 11.66 19.5 8.46C19.51 8.21 19.61 7.97 19.79 7.79C20.24 7.34 20.61 6.82 20.79 6.21C20.47 6.31 20.11 6.4 19.68 6.48C19.36 6.54 19.02 6.44 18.79 6.2C18.02 5.44 16.51 4.94 15.26 5.27C14.66 5.43 14.13 5.78 13.72 6.39C13.31 7.02 13 8.01 13 9.5C13 9.78 12.88 10.05 12.67 10.24C12.17 10.69 11.33 10.42 10.74 10.3Z" fill="#0F0F0F" fill-opacity="1.000000" fill-rule="evenodd"/>
	</g>
</svg>
