<svg width="24.000000" height="25.000000" viewBox="0 0 24 25" fill="none" xmlns="http://www.w3.org/2000/svg" xmlns:xlink="http://www.w3.org/1999/xlink">
	<desc>
			Created with Pixso.
	</desc>
	<defs>
		<clipPath id="clip12_384">
			<rect id="youtube 1" width="24.000000" height="25.000000" fill="white" fill-opacity="0"/>
		</clipPath>
	</defs>
	<rect id="youtube 1" width="24.000000" height="25.000000" fill="#FFFFFF" fill-opacity="0"/>
	<g clip-path="url(#clip12_384)">
		<path id="Vector" d="M9.49 7.63C9.18 7.45 8.8 7.45 8.49 7.63C8.18 7.81 8 8.14 8 8.5L8 16.5C8 16.85 8.18 17.18 8.49 17.36C8.8 17.54 9.18 17.54 9.49 17.36L16.49 13.36C16.8 13.19 17 12.85 17 12.5C17 12.14 16.8 11.8 16.49 11.63L9.49 7.63ZM13.98 12.5L10 14.77L10 10.22L13.98 12.5Z" fill="#0F0F0F" fill-opacity="1.000000" fill-rule="evenodd"/>
		<path id="Vector" d="M0 12.5C0 8.75 0 6.87 0.95 5.56C1.26 5.13 1.63 4.76 2.06 4.45C3.37 3.5 5.25 3.5 9 3.5L15 3.5C18.74 3.5 20.62 3.5 21.93 4.45C22.36 4.76 22.73 5.13 23.04 5.56C24 6.87 24 8.75 24 12.5C24 16.24 24 18.12 23.04 19.43C22.73 19.86 22.36 20.23 21.93 20.54C20.62 21.5 18.74 21.5 15 21.5L9 21.5C5.25 21.5 3.37 21.5 2.06 20.54C1.63 20.23 1.26 19.86 0.95 19.43C0 18.12 0 16.24 0 12.5ZM9 5.5L15 5.5C16.91 5.5 18.19 5.5 19.16 5.6C20.09 5.7 20.5 5.88 20.76 6.07C21.01 6.25 21.24 6.48 21.42 6.73C21.61 6.99 21.79 7.4 21.89 8.33C21.99 9.3 22 10.58 22 12.5C22 14.41 21.99 15.69 21.89 16.66C21.79 17.59 21.61 18 21.42 18.26C21.24 18.51 21.01 18.74 20.76 18.92C20.5 19.11 20.09 19.29 19.16 19.39C18.19 19.49 16.91 19.5 15 19.5L9 19.5C7.08 19.5 5.8 19.49 4.83 19.39C3.9 19.29 3.49 19.11 3.23 18.92C2.98 18.74 2.75 18.51 2.57 18.26C2.38 18 2.2 17.59 2.1 16.66C2 15.69 2 14.41 2 12.5C2 10.58 2 9.3 2.1 8.33C2.2 7.4 2.38 6.99 2.57 6.73C2.75 6.48 2.98 6.25 3.23 6.07C3.49 5.88 3.9 5.7 4.83 5.6C5.8 5.5 7.08 5.5 9 5.5Z" fill="#0F0F0F" fill-opacity="1.000000" fill-rule="evenodd"/>
	</g>
</svg>
