<svg width="24.000000" height="24.000000" viewBox="0 0 24 24" fill="none" xmlns="http://www.w3.org/2000/svg" xmlns:xlink="http://www.w3.org/1999/xlink">
	<desc>
			Created with Pixso.
	</desc>
	<defs>
		<clipPath id="clip2_147">
			<rect id="shopping-bag 3" width="24.000000" height="24.000000" fill="white" fill-opacity="0"/>
		</clipPath>
	</defs>
	<rect id="shopping-bag 3" width="24.000000" height="24.000000" fill="#FFFFFF" fill-opacity="0"/>
	<g clip-path="url(#clip2_147)">
		<path id="Vector" d="M16.52 6C16.5 5.91 16.49 5.83 16.47 5.75C16.2 4.7 15.79 3.55 15.11 2.65C14.41 1.71 13.39 1 12 1C10.6 1 9.58 1.71 8.88 2.65C8.2 3.55 7.79 4.7 7.52 5.75C7.5 5.83 7.49 5.91 7.47 6L5.87 6C4.29 6 2.98 7.22 2.87 8.8L2.14 19.8C2.02 21.53 3.4 23 5.13 23L18.86 23C20.59 23 21.97 21.53 21.85 19.8L21.12 8.8C21.01 7.22 19.7 6 18.12 6L16.52 6ZM7.47 14.5C8.04 14.5 8.99 10.56 9 9.99C9 9.97 9 9.95 9 9.92C9 9.87 9 9.79 9 9.69C9.01 9.48 9.02 9.18 9.05 8.83C9.08 8.57 9.1 8.29 9.14 8L14.85 8C14.89 8.29 14.91 8.57 14.94 8.83C14.97 9.18 14.98 9.48 14.99 9.69C14.99 9.79 14.99 9.87 14.99 9.92C14.99 9.95 14.99 9.97 15 10C15 10 15.47 14.5 16.47 14.5C17.47 14.5 17 9.99 17 9.99C16.99 9.96 16.99 9.92 16.99 9.89C16.99 9.82 16.99 9.73 16.99 9.62C16.98 9.38 16.96 9.06 16.93 8.66C16.91 8.46 16.89 8.23 16.86 8L18.12 8C18.65 8 19.09 8.4 19.12 8.93L19.86 19.93C19.89 20.51 19.44 21 18.86 21L5.13 21C4.55 21 4.1 20.51 4.13 19.93L4.87 8.93C4.9 8.4 5.34 8 5.87 8L7.13 8C7.1 8.23 7.08 8.46 7.06 8.66C7.03 9.06 7.01 9.38 7 9.62C7 9.73 7 9.82 7 9.89C7 9.92 7 9.96 7 9.99C6.99 10.56 6.89 14.5 7.47 14.5ZM9.53 6L14.46 6C14.23 5.15 13.92 4.39 13.51 3.84C13.08 3.28 12.6 3 12 3C11.39 3 10.91 3.28 10.48 3.84C10.07 4.39 9.76 5.15 9.53 6Z" fill="#0F0F0F" fill-opacity="1.000000" fill-rule="evenodd"/>
	</g>
</svg>
