<svg width="24.000000" height="24.000000" viewBox="0 0 24 24" fill="none" xmlns="http://www.w3.org/2000/svg" xmlns:xlink="http://www.w3.org/1999/xlink">
	<desc>
			Created with Pixso.
	</desc>
	<defs>
		<clipPath id="clip2_145">
			<rect id="heart 2" width="24.000000" height="24.000000" fill="white" fill-opacity="0"/>
		</clipPath>
	</defs>
	<rect id="heart 2" width="24.000000" height="24.000000" fill="#FFFFFF" fill-opacity="0"/>
	<g clip-path="url(#clip2_145)">
		<path id="Vector" d="M3.48 6C2.76 7.24 2.52 8.97 2.97 10.75C3.13 11.39 3.59 12.22 4.33 13.17C5.06 14.1 5.98 15.07 6.96 16.01C8.9 17.86 11 19.49 12 20.25C12.99 19.49 15.09 17.86 17.03 16.01C18.01 15.07 18.93 14.1 19.66 13.17C20.4 12.22 20.86 11.39 21.02 10.75C21.47 8.97 21.23 7.24 20.51 6C19.8 4.78 18.62 4 17 4C15.59 4 14.59 5.04 13.89 6.44C13.55 7.12 13.32 7.8 13.18 8.33C13.11 8.58 13.06 8.8 13.02 8.95C12.91 9.47 12.31 9.5 12 9.5C11.68 9.5 11.08 9.46 10.97 8.95C10.93 8.8 10.88 8.58 10.81 8.33C10.67 7.8 10.44 7.12 10.1 6.44C9.4 5.04 8.4 4 7 4C5.37 4 4.19 4.78 3.48 6ZM12 5.77C12.03 5.69 12.06 5.62 12.1 5.55C12.9 3.95 15.4 1 18 1C20.37 1 21.19 3.21 22.23 4.99C23.26 6.75 23.52 9.02 22.97 11.24C22.7 12.29 22.03 13.38 21.24 14.4C20.43 15.44 19.43 16.48 18.41 17.46C16.37 19.4 14.19 21.1 13.18 21.86C12.48 22.39 11.51 22.39 10.81 21.86C9.8 21.1 7.62 19.4 5.58 17.46C4.56 16.48 3.56 15.44 2.75 14.4C1.96 13.38 1.29 12.29 1.02 11.24C0.47 9.02 0.73 6.75 1.76 4.99C2.8 3.21 4.12 1 6.5 1C9.09 1 11.09 3.95 11.89 5.55C11.93 5.62 11.96 5.69 12 5.77Z" fill="#0F0F0F" fill-opacity="1.000000" fill-rule="evenodd"/>
	</g>
</svg>
